<svg xmlns="http://www.w3.org/2000/svg" width="320" height="320" viewBox="0 0 320 320" fill="none">
  <rect width="320" height="320" fill="#080B08"/>
  <g stroke="#18221B" stroke-width="1">
    <path d="M40 0V320"/>
    <path d="M80 0V320"/>
    <path d="M120 0V320"/>
    <path d="M160 0V320"/>
    <path d="M200 0V320"/>
    <path d="M240 0V320"/>
    <path d="M280 0V320"/>
    <path d="M0 40H320"/>
    <path d="M0 80H320"/>
    <path d="M0 120H320"/>
    <path d="M0 160H320"/>
    <path d="M0 200H320"/>
    <path d="M0 240H320"/>
    <path d="M0 280H320"/>
  </g>
  <g stroke="#354536" stroke-width="2" stroke-linecap="round" opacity="0.6">
    <path d="M24 292L92 224L156 244L260 148"/>
    <path d="M264 52L292 80L292 108"/>
  </g>
</svg>
